{
	"asset":{
		"generator":"Khronos glTF Blender I/O v4.2.57",
		"version":"2.0"
	},
	"scene":0,
	"scenes":[
		{
			"name":"Scene",
			"nodes":[
				43
			]
		}
	],
	"nodes":[
		{
			"mesh":0,
			"name":"ambient_occlusion_fireRed_material_0"
		},
		{
			"children":[
				0
			],
			"name":"ambient_occlusion"
		},
		{
			"mesh":1,
			"name":"base_fireRed_material_0"
		},
		{
			"children":[
				2
			],
			"name":"base"
		},
		{
			"mesh":2,
			"name":"tiles_fireRed_material_0"
		},
		{
			"children":[
				4
			],
			"name":"tiles"
		},
		{
			"children":[
				3,
				5
			],
			"name":"Base_GRP"
		},
		{
			"mesh":3,
			"name":"bed_fireRed_material_0"
		},
		{
			"children":[
				7
			],
			"name":"bed"
		},
		{
			"mesh":4,
			"name":"bookShelf_fireRed_material_0"
		},
		{
			"children":[
				9
			],
			"name":"bookShelf"
		},
		{
			"mesh":5,
			"name":"carpet_A_fireRed_material_0"
		},
		{
			"children":[
				11
			],
			"name":"carpet_A"
		},
		{
			"mesh":6,
			"name":"carpet_B_fireRed_material_0"
		},
		{
			"children":[
				13
			],
			"name":"carpet_B"
		},
		{
			"children":[
				12,
				14
			],
			"name":"Carpet_GRP"
		},
		{
			"mesh":7,
			"name":"chair_fireRed_material_0"
		},
		{
			"children":[
				16
			],
			"name":"chair"
		},
		{
			"mesh":8,
			"name":"Computer_fireRed_material_0"
		},
		{
			"children":[
				18
			],
			"name":"Computer"
		},
		{
			"mesh":9,
			"name":"table_fireRed_material_0"
		},
		{
			"children":[
				20
			],
			"name":"table"
		},
		{
			"children":[
				17,
				19,
				21
			],
			"name":"Computer_GRP"
		},
		{
			"mesh":10,
			"name":"dresser_fireRed_material_0"
		},
		{
			"children":[
				23
			],
			"name":"dresser"
		},
		{
			"mesh":11,
			"name":"NES_fireRed_material_0"
		},
		{
			"children":[
				25
			],
			"name":"NES"
		},
		{
			"mesh":12,
			"name":"railing_fireRed_material_0"
		},
		{
			"children":[
				27
			],
			"name":"railing"
		},
		{
			"mesh":13,
			"name":"stairs_fireRed_material_0"
		},
		{
			"children":[
				29
			],
			"name":"stairs"
		},
		{
			"mesh":14,
			"name":"title_fireRed_material_0"
		},
		{
			"children":[
				31
			],
			"name":"title"
		},
		{
			"mesh":15,
			"name":"TV_fireRed_material_0"
		},
		{
			"children":[
				33
			],
			"name":"TV"
		},
		{
			"mesh":16,
			"name":"TV_stand_fireRed_material_0"
		},
		{
			"children":[
				35
			],
			"name":"TV_stand"
		},
		{
			"children":[
				34,
				36
			],
			"name":"TV_GRP"
		},
		{
			"mesh":17,
			"name":"wall_picture_fireRed_material_0"
		},
		{
			"children":[
				38
			],
			"name":"wall_picture"
		},
		{
			"children":[
				1,
				6,
				8,
				10,
				15,
				22,
				24,
				26,
				28,
				30,
				32,
				37,
				39
			],
			"name":"Pokemon_FireRed_Player_s_Room_GRP"
		},
		{
			"children":[
				40
			],
			"name":"RootNode"
		},
		{
			"children":[
				41
			],
			"name":"fireRed_room.fbx",
			"rotation":[
				0.70710688829422,
				0,
				0,
				0.7071066498756409
			]
		},
		{
			"children":[
				42
			],
			"name":"Sketchfab_model",
			"rotation":[
				-0.70710688829422,
				0,
				0,
				0.7071066498756409
			]
		}
	],
	"materials":[
		{
			"doubleSided":true,
			"name":"fireRed_material",
			"pbrMetallicRoughness":{
				"baseColorTexture":{
					"index":0
				},
				"metallicFactor":0,
				"roughnessFactor":0.5
			}
		}
	],
	"meshes":[
		{
			"name":"ambient_occlusion_fireRed_material_0",
			"primitives":[
				{
					"attributes":{
						"POSITION":0,
						"NORMAL":1,
						"TEXCOORD_0":2
					},
					"indices":3,
					"material":0
				}
			]
		},
		{
			"name":"base_fireRed_material_0",
			"primitives":[
				{
					"attributes":{
						"POSITION":4,
						"NORMAL":5,
						"TEXCOORD_0":6
					},
					"indices":7,
					"material":0
				}
			]
		},
		{
			"name":"tiles_fireRed_material_0",
			"primitives":[
				{
					"attributes":{
						"POSITION":8,
						"NORMAL":9,
						"TEXCOORD_0":10
					},
					"indices":11,
					"material":0
				}
			]
		},
		{
			"name":"bed_fireRed_material_0",
			"primitives":[
				{
					"attributes":{
						"POSITION":12,
						"NORMAL":13,
						"TEXCOORD_0":14
					},
					"indices":15,
					"material":0
				}
			]
		},
		{
			"name":"bookShelf_fireRed_material_0",
			"primitives":[
				{
					"attributes":{
						"POSITION":16,
						"NORMAL":17,
						"TEXCOORD_0":18
					},
					"indices":19,
					"material":0
				}
			]
		},
		{
			"name":"carpet_A_fireRed_material_0",
			"primitives":[
				{
					"attributes":{
						"POSITION":20,
						"NORMAL":21,
						"TEXCOORD_0":22
					},
					"indices":23,
					"material":0
				}
			]
		},
		{
			"name":"carpet_B_fireRed_material_0",
			"primitives":[
				{
					"attributes":{
						"POSITION":24,
						"NORMAL":25,
						"TEXCOORD_0":26
					},
					"indices":27,
					"material":0
				}
			]
		},
		{
			"name":"chair_fireRed_material_0",
			"primitives":[
				{
					"attributes":{
						"POSITION":28,
						"NORMAL":29,
						"TEXCOORD_0":30
					},
					"indices":31,
					"material":0
				}
			]
		},
		{
			"name":"Computer_fireRed_material_0",
			"primitives":[
				{
					"attributes":{
						"POSITION":32,
						"NORMAL":33,
						"TEXCOORD_0":34
					},
					"indices":35,
					"material":0
				}
			]
		},
		{
			"name":"table_fireRed_material_0",
			"primitives":[
				{
					"attributes":{
						"POSITION":36,
						"NORMAL":37,
						"TEXCOORD_0":38
					},
					"indices":39,
					"material":0
				}
			]
		},
		{
			"name":"dresser_fireRed_material_0",
			"primitives":[
				{
					"attributes":{
						"POSITION":40,
						"NORMAL":41,
						"TEXCOORD_0":42
					},
					"indices":43,
					"material":0
				}
			]
		},
		{
			"name":"NES_fireRed_material_0",
			"primitives":[
				{
					"attributes":{
						"POSITION":44,
						"NORMAL":45,
						"TEXCOORD_0":46
					},
					"indices":47,
					"material":0
				}
			]
		},
		{
			"name":"railing_fireRed_material_0",
			"primitives":[
				{
					"attributes":{
						"POSITION":48,
						"NORMAL":49,
						"TEXCOORD_0":50
					},
					"indices":51,
					"material":0
				}
			]
		},
		{
			"name":"stairs_fireRed_material_0",
			"primitives":[
				{
					"attributes":{
						"POSITION":52,
						"NORMAL":53,
						"TEXCOORD_0":54
					},
					"indices":55,
					"material":0
				}
			]
		},
		{
			"name":"title_fireRed_material_0",
			"primitives":[
				{
					"attributes":{
						"POSITION":56,
						"NORMAL":57,
						"TEXCOORD_0":58
					},
					"indices":59,
					"material":0
				}
			]
		},
		{
			"name":"TV_fireRed_material_0",
			"primitives":[
				{
					"attributes":{
						"POSITION":60,
						"NORMAL":61,
						"TEXCOORD_0":62
					},
					"indices":63,
					"material":0
				}
			]
		},
		{
			"name":"TV_stand_fireRed_material_0",
			"primitives":[
				{
					"attributes":{
						"POSITION":64,
						"NORMAL":65,
						"TEXCOORD_0":66
					},
					"indices":67,
					"material":0
				}
			]
		},
		{
			"name":"wall_picture_fireRed_material_0",
			"primitives":[
				{
					"attributes":{
						"POSITION":68,
						"NORMAL":69,
						"TEXCOORD_0":70
					},
					"indices":67,
					"material":0
				}
			]
		}
	],
	"textures":[
		{
			"sampler":0,
			"source":0
		}
	],
	"images":[
		{
			"mimeType":"image/png",
			"name":"fireRed_material_baseColor",
			"uri":"fireRed_material_baseColor.png"
		}
	],
	"accessors":[
		{
			"bufferView":0,
			"componentType":5126,
			"count":36,
			"max":[
				3.9402875900268555,
				0.02946883626282215,
				3.085136651992798
			],
			"min":[
				-4.922604560852051,
				0.021064894273877144,
				-2.9779438972473145
			],
			"type":"VEC3"
		},
		{
			"bufferView":1,
			"componentType":5126,
			"count":36,
			"type":"VEC3"
		},
		{
			"bufferView":2,
			"componentType":5126,
			"count":36,
			"type":"VEC2"
		},
		{
			"bufferView":3,
			"componentType":5123,
			"count":54,
			"type":"SCALAR"
		},
		{
			"bufferView":4,
			"componentType":5126,
			"count":175,
			"max":[
				6,
				2.565229892730713,
				4
			],
			"min":[
				-5.381704330444336,
				-0.9600721001625061,
				-3.3817038536071777
			],
			"type":"VEC3"
		},
		{
			"bufferView":5,
			"componentType":5126,
			"count":175,
			"type":"VEC3"
		},
		{
			"bufferView":6,
			"componentType":5126,
			"count":175,
			"type":"VEC2"
		},
		{
			"bufferView":7,
			"componentType":5123,
			"count":276,
			"type":"SCALAR"
		},
		{
			"bufferView":8,
			"componentType":5126,
			"count":278,
			"max":[
				6,
				5.16171687191624e-17,
				4
			],
			"min":[
				-5,
				-1.1102230246251565e-16,
				-3
			],
			"type":"VEC3"
		},
		{
			"bufferView":9,
			"componentType":5126,
			"count":278,
			"type":"VEC3"
		},
		{
			"bufferView":10,
			"componentType":5126,
			"count":278,
			"type":"VEC2"
		},
		{
			"bufferView":11,
			"componentType":5123,
			"count":450,
			"type":"SCALAR"
		},
		{
			"bufferView":12,
			"componentType":5126,
			"count":448,
			"max":[
				-3.0745840072631836,
				1.0122227668762207,
				3.0841903686523438
			],
			"min":[
				-4.547375202178955,
				0.021064894273877144,
				0.5770779848098755
			],
			"type":"VEC3"
		},
		{
			"bufferView":13,
			"componentType":5126,
			"count":448,
			"type":"VEC3"
		},
		{
			"bufferView":14,
			"componentType":5126,
			"count":448,
			"type":"VEC2"
		},
		{
			"bufferView":15,
			"componentType":5123,
			"count":714,
			"type":"SCALAR"
		},
		{
			"bufferView":16,
			"componentType":5126,
			"count":76,
			"max":[
				0.19386188685894012,
				1.690542459487915,
				-2
			],
			"min":[
				-1.8133540153503418,
				0.0210648775100708,
				-3
			],
			"type":"VEC3"
		},
		{
			"bufferView":17,
			"componentType":5126,
			"count":76,
			"type":"VEC3"
		},
		{
			"bufferView":18,
			"componentType":5126,
			"count":76,
			"type":"VEC2"
		},
		{
			"bufferView":19,
			"componentType":5123,
			"count":114,
			"type":"SCALAR"
		},
		{
			"bufferView":20,
			"componentType":5126,
			"count":11,
			"max":[
				2.8014848232269287,
				0.021064894273877144,
				2.8864457607269287
			],
			"min":[
				-1.8441599607467651,
				0.021064894273877144,
				-0.897514820098877
			],
			"type":"VEC3"
		},
		{
			"bufferView":21,
			"componentType":5126,
			"count":11,
			"type":"VEC3"
		},
		{
			"bufferView":22,
			"componentType":5126,
			"count":11,
			"type":"VEC2"
		},
		{
			"bufferView":23,
			"componentType":5123,
			"count":24,
			"type":"SCALAR"
		},
		{
			"bufferView":24,
			"componentType":5126,
			"count":9,
			"max":[
				4.908877849578857,
				0.021064894273877144,
				-1.5018339157104492
			],
			"min":[
				4.078227996826172,
				0.021064894273877144,
				-2.88024640083313
			],
			"type":"VEC3"
		},
		{
			"bufferView":25,
			"componentType":5126,
			"count":9,
			"type":"VEC3"
		},
		{
			"bufferView":26,
			"componentType":5126,
			"count":9,
			"type":"VEC2"
		},
		{
			"bufferView":27,
			"componentType":5123,
			"count":24,
			"type":"SCALAR"
		},
		{
			"bufferView":28,
			"componentType":5126,
			"count":84,
			"max":[
				-4.075710773468018,
				0.4109398126602173,
				-1.0339083671569824
			],
			"min":[
				-4.641225337982178,
				0.02106495387852192,
				-1.5994226932525635
			],
			"type":"VEC3"
		},
		{
			"bufferView":29,
			"componentType":5126,
			"count":84,
			"type":"VEC3"
		},
		{
			"bufferView":30,
			"componentType":5126,
			"count":84,
			"type":"VEC2"
		},
		{
			"bufferView":31,
			"componentType":5123,
			"count":126,
			"type":"SCALAR"
		},
		{
			"bufferView":32,
			"componentType":5126,
			"count":64,
			"max":[
				-3.9676177501678467,
				1.5660583972930908,
				-2.088336229324341
			],
			"min":[
				-4.728954315185547,
				0.7600889205932617,
				-2.909498691558838
			],
			"type":"VEC3"
		},
		{
			"bufferView":33,
			"componentType":5126,
			"count":64,
			"type":"VEC3"
		},
		{
			"bufferView":34,
			"componentType":5126,
			"count":64,
			"type":"VEC2"
		},
		{
			"bufferView":35,
			"componentType":5123,
			"count":126,
			"type":"SCALAR"
		},
		{
			"bufferView":36,
			"componentType":5126,
			"count":44,
			"max":[
				-2.9128177165985107,
				0.7600889205932617,
				-2
			],
			"min":[
				-5,
				0.021064894273877144,
				-3
			],
			"type":"VEC3"
		},
		{
			"bufferView":37,
			"componentType":5126,
			"count":44,
			"type":"VEC3"
		},
		{
			"bufferView":38,
			"componentType":5126,
			"count":44,
			"type":"VEC2"
		},
		{
			"bufferView":39,
			"componentType":5123,
			"count":66,
			"type":"SCALAR"
		},
		{
			"bufferView":40,
			"componentType":5126,
			"count":56,
			"max":[
				-1.8987362384796143,
				1.252179503440857,
				-2
			],
			"min":[
				-2.8872182369232178,
				0.021064894273877144,
				-3
			],
			"type":"VEC3"
		},
		{
			"bufferView":41,
			"componentType":5126,
			"count":56,
			"type":"VEC3"
		},
		{
			"bufferView":42,
			"componentType":5126,
			"count":56,
			"type":"VEC2"
		},
		{
			"bufferView":43,
			"componentType":5123,
			"count":84,
			"type":"SCALAR"
		},
		{
			"bufferView":44,
			"componentType":5126,
			"count":204,
			"max":[
				0.800529956817627,
				0.3248821496963501,
				1.802044153213501
			],
			"min":[
				0.015908867120742798,
				0.029468834400177002,
				0.8847665786743164
			],
			"type":"VEC3"
		},
		{
			"bufferView":45,
			"componentType":5126,
			"count":204,
			"type":"VEC3"
		},
		{
			"bufferView":46,
			"componentType":5126,
			"count":204,
			"type":"VEC2"
		},
		{
			"bufferView":47,
			"componentType":5123,
			"count":312,
			"type":"SCALAR"
		},
		{
			"bufferView":48,
			"componentType":5126,
			"count":156,
			"max":[
				4,
				0.6992074251174927,
				-1.0540882349014282
			],
			"min":[
				1.610325574874878,
				0.021064894273877144,
				-3
			],
			"type":"VEC3"
		},
		{
			"bufferView":49,
			"componentType":5126,
			"count":156,
			"type":"VEC3"
		},
		{
			"bufferView":50,
			"componentType":5126,
			"count":156,
			"type":"VEC2"
		},
		{
			"bufferView":51,
			"componentType":5123,
			"count":246,
			"type":"SCALAR"
		},
		{
			"bufferView":52,
			"componentType":5126,
			"count":64,
			"max":[
				4,
				1.1102230246251565e-16,
				-1.4999998807907104
			],
			"min":[
				2,
				-0.9161791801452637,
				-3
			],
			"type":"VEC3"
		},
		{
			"bufferView":53,
			"componentType":5126,
			"count":64,
			"type":"VEC3"
		},
		{
			"bufferView":54,
			"componentType":5126,
			"count":64,
			"type":"VEC2"
		},
		{
			"bufferView":55,
			"componentType":5123,
			"count":96,
			"type":"SCALAR"
		},
		{
			"bufferView":56,
			"componentType":5126,
			"count":8,
			"max":[
				1.846674919128418,
				-0.4504404366016388,
				3.6641178131103516
			],
			"min":[
				-1.2283787727355957,
				-0.4504404366016388,
				2.3550586700439453
			],
			"type":"VEC3"
		},
		{
			"bufferView":57,
			"componentType":5126,
			"count":8,
			"type":"VEC3"
		},
		{
			"bufferView":58,
			"componentType":5126,
			"count":8,
			"type":"VEC2"
		},
		{
			"bufferView":59,
			"componentType":5123,
			"count":12,
			"type":"SCALAR"
		},
		{
			"bufferView":60,
			"componentType":5126,
			"count":56,
			"max":[
				0.8293429613113403,
				1.2065067291259766,
				0.16136395931243896
			],
			"min":[
				-0.012904107570648193,
				0.502406120300293,
				-0.7981141209602356
			],
			"type":"VEC3"
		},
		{
			"bufferView":61,
			"componentType":5126,
			"count":56,
			"type":"VEC3"
		},
		{
			"bufferView":62,
			"componentType":5126,
			"count":56,
			"type":"VEC2"
		},
		{
			"bufferView":63,
			"componentType":5123,
			"count":132,
			"type":"SCALAR"
		},
		{
			"bufferView":64,
			"componentType":5126,
			"count":20,
			"max":[
				0.8701956868171692,
				0.502406120300293,
				0.20740604400634766
			],
			"min":[
				-0.05375683307647705,
				0.029469013214111328,
				-0.694499135017395
			],
			"type":"VEC3"
		},
		{
			"bufferView":65,
			"componentType":5126,
			"count":20,
			"type":"VEC3"
		},
		{
			"bufferView":66,
			"componentType":5126,
			"count":20,
			"type":"VEC2"
		},
		{
			"bufferView":67,
			"componentType":5123,
			"count":30,
			"type":"SCALAR"
		},
		{
			"bufferView":68,
			"componentType":5126,
			"count":20,
			"max":[
				6,
				1.607344150543213,
				-2.9461708068847656
			],
			"min":[
				5,
				0.845867395401001,
				-3
			],
			"type":"VEC3"
		},
		{
			"bufferView":69,
			"componentType":5126,
			"count":20,
			"type":"VEC3"
		},
		{
			"bufferView":70,
			"componentType":5126,
			"count":20,
			"type":"VEC2"
		}
	],
	"bufferViews":[
		{
			"buffer":0,
			"byteLength":432,
			"byteOffset":0,
			"target":34962
		},
		{
			"buffer":0,
			"byteLength":432,
			"byteOffset":432,
			"target":34962
		},
		{
			"buffer":0,
			"byteLength":288,
			"byteOffset":864,
			"target":34962
		},
		{
			"buffer":0,
			"byteLength":108,
			"byteOffset":1152,
			"target":34963
		},
		{
			"buffer":0,
			"byteLength":2100,
			"byteOffset":1260,
			"target":34962
		},
		{
			"buffer":0,
			"byteLength":2100,
			"byteOffset":3360,
			"target":34962
		},
		{
			"buffer":0,
			"byteLength":1400,
			"byteOffset":5460,
			"target":34962
		},
		{
			"buffer":0,
			"byteLength":552,
			"byteOffset":6860,
			"target":34963
		},
		{
			"buffer":0,
			"byteLength":3336,
			"byteOffset":7412,
			"target":34962
		},
		{
			"buffer":0,
			"byteLength":3336,
			"byteOffset":10748,
			"target":34962
		},
		{
			"buffer":0,
			"byteLength":2224,
			"byteOffset":14084,
			"target":34962
		},
		{
			"buffer":0,
			"byteLength":900,
			"byteOffset":16308,
			"target":34963
		},
		{
			"buffer":0,
			"byteLength":5376,
			"byteOffset":17208,
			"target":34962
		},
		{
			"buffer":0,
			"byteLength":5376,
			"byteOffset":22584,
			"target":34962
		},
		{
			"buffer":0,
			"byteLength":3584,
			"byteOffset":27960,
			"target":34962
		},
		{
			"buffer":0,
			"byteLength":1428,
			"byteOffset":31544,
			"target":34963
		},
		{
			"buffer":0,
			"byteLength":912,
			"byteOffset":32972,
			"target":34962
		},
		{
			"buffer":0,
			"byteLength":912,
			"byteOffset":33884,
			"target":34962
		},
		{
			"buffer":0,
			"byteLength":608,
			"byteOffset":34796,
			"target":34962
		},
		{
			"buffer":0,
			"byteLength":228,
			"byteOffset":35404,
			"target":34963
		},
		{
			"buffer":0,
			"byteLength":132,
			"byteOffset":35632,
			"target":34962
		},
		{
			"buffer":0,
			"byteLength":132,
			"byteOffset":35764,
			"target":34962
		},
		{
			"buffer":0,
			"byteLength":88,
			"byteOffset":35896,
			"target":34962
		},
		{
			"buffer":0,
			"byteLength":48,
			"byteOffset":35984,
			"target":34963
		},
		{
			"buffer":0,
			"byteLength":108,
			"byteOffset":36032,
			"target":34962
		},
		{
			"buffer":0,
			"byteLength":108,
			"byteOffset":36140,
			"target":34962
		},
		{
			"buffer":0,
			"byteLength":72,
			"byteOffset":36248,
			"target":34962
		},
		{
			"buffer":0,
			"byteLength":48,
			"byteOffset":36320,
			"target":34963
		},
		{
			"buffer":0,
			"byteLength":1008,
			"byteOffset":36368,
			"target":34962
		},
		{
			"buffer":0,
			"byteLength":1008,
			"byteOffset":37376,
			"target":34962
		},
		{
			"buffer":0,
			"byteLength":672,
			"byteOffset":38384,
			"target":34962
		},
		{
			"buffer":0,
			"byteLength":252,
			"byteOffset":39056,
			"target":34963
		},
		{
			"buffer":0,
			"byteLength":768,
			"byteOffset":39308,
			"target":34962
		},
		{
			"buffer":0,
			"byteLength":768,
			"byteOffset":40076,
			"target":34962
		},
		{
			"buffer":0,
			"byteLength":512,
			"byteOffset":40844,
			"target":34962
		},
		{
			"buffer":0,
			"byteLength":252,
			"byteOffset":41356,
			"target":34963
		},
		{
			"buffer":0,
			"byteLength":528,
			"byteOffset":41608,
			"target":34962
		},
		{
			"buffer":0,
			"byteLength":528,
			"byteOffset":42136,
			"target":34962
		},
		{
			"buffer":0,
			"byteLength":352,
			"byteOffset":42664,
			"target":34962
		},
		{
			"buffer":0,
			"byteLength":132,
			"byteOffset":43016,
			"target":34963
		},
		{
			"buffer":0,
			"byteLength":672,
			"byteOffset":43148,
			"target":34962
		},
		{
			"buffer":0,
			"byteLength":672,
			"byteOffset":43820,
			"target":34962
		},
		{
			"buffer":0,
			"byteLength":448,
			"byteOffset":44492,
			"target":34962
		},
		{
			"buffer":0,
			"byteLength":168,
			"byteOffset":44940,
			"target":34963
		},
		{
			"buffer":0,
			"byteLength":2448,
			"byteOffset":45108,
			"target":34962
		},
		{
			"buffer":0,
			"byteLength":2448,
			"byteOffset":47556,
			"target":34962
		},
		{
			"buffer":0,
			"byteLength":1632,
			"byteOffset":50004,
			"target":34962
		},
		{
			"buffer":0,
			"byteLength":624,
			"byteOffset":51636,
			"target":34963
		},
		{
			"buffer":0,
			"byteLength":1872,
			"byteOffset":52260,
			"target":34962
		},
		{
			"buffer":0,
			"byteLength":1872,
			"byteOffset":54132,
			"target":34962
		},
		{
			"buffer":0,
			"byteLength":1248,
			"byteOffset":56004,
			"target":34962
		},
		{
			"buffer":0,
			"byteLength":492,
			"byteOffset":57252,
			"target":34963
		},
		{
			"buffer":0,
			"byteLength":768,
			"byteOffset":57744,
			"target":34962
		},
		{
			"buffer":0,
			"byteLength":768,
			"byteOffset":58512,
			"target":34962
		},
		{
			"buffer":0,
			"byteLength":512,
			"byteOffset":59280,
			"target":34962
		},
		{
			"buffer":0,
			"byteLength":192,
			"byteOffset":59792,
			"target":34963
		},
		{
			"buffer":0,
			"byteLength":96,
			"byteOffset":59984,
			"target":34962
		},
		{
			"buffer":0,
			"byteLength":96,
			"byteOffset":60080,
			"target":34962
		},
		{
			"buffer":0,
			"byteLength":64,
			"byteOffset":60176,
			"target":34962
		},
		{
			"buffer":0,
			"byteLength":24,
			"byteOffset":60240,
			"target":34963
		},
		{
			"buffer":0,
			"byteLength":672,
			"byteOffset":60264,
			"target":34962
		},
		{
			"buffer":0,
			"byteLength":672,
			"byteOffset":60936,
			"target":34962
		},
		{
			"buffer":0,
			"byteLength":448,
			"byteOffset":61608,
			"target":34962
		},
		{
			"buffer":0,
			"byteLength":264,
			"byteOffset":62056,
			"target":34963
		},
		{
			"buffer":0,
			"byteLength":240,
			"byteOffset":62320,
			"target":34962
		},
		{
			"buffer":0,
			"byteLength":240,
			"byteOffset":62560,
			"target":34962
		},
		{
			"buffer":0,
			"byteLength":160,
			"byteOffset":62800,
			"target":34962
		},
		{
			"buffer":0,
			"byteLength":60,
			"byteOffset":62960,
			"target":34963
		},
		{
			"buffer":0,
			"byteLength":240,
			"byteOffset":63020,
			"target":34962
		},
		{
			"buffer":0,
			"byteLength":240,
			"byteOffset":63260,
			"target":34962
		},
		{
			"buffer":0,
			"byteLength":160,
			"byteOffset":63500,
			"target":34962
		}
	],
	"samplers":[
		{
			"magFilter":9728,
			"minFilter":9984
		}
	],
	"buffers":[
		{
			"byteLength":63660,
			"uri":"scene.bin"
		}
	]
}
