{
  "accessors": [
    {
      "bufferView": 2,
      "componentType": 5126,
      "count": 601,
      "max": [
        1.1707539558410645,
        1.0412249565124512,
        0.2918489873409271
      ],
      "min": [
        -1.3141520023345947,
        -0.9042729735374451,
        -0.7558140158653259
      ],
      "type": "VEC3"
    },
    {
      "bufferView": 2,
      "byteOffset": 7212,
      "componentType": 5126,
      "count": 601,
      "max": [
        0.785643994808197,
        0.8295080065727234,
        -0.03849957138299942
      ],
      "min": [
        -0.84675532579422,
        -0.9957889914512634,
        -0.986402690410614
      ],
      "type": "VEC3"
    },
    {
      "bufferView": 1,
      "componentType": 5126,
      "count": 601,
      "max": [
        0.0,
        0.0
      ],
      "min": [
        0.0,
        0.0
      ],
      "type": "VEC2"
    },
    {
      "bufferView": 0,
      "componentType": 5125,
      "count": 2820,
      "type": "SCALAR"
    },
    {
      "bufferView": 2,
      "byteOffset": 14424,
      "componentType": 5126,
      "count": 2577,
      "max": [
        0.4737749993801117,
        0.4873589873313904,
        1.183756947517395
      ],
      "min": [
        -0.5030819773674011,
        -0.47512298822402954,
        -1.5812150239944458
      ],
      "type": "VEC3"
    },
    {
      "bufferView": 2,
      "byteOffset": 45348,
      "componentType": 5126,
      "count": 2577,
      "max": [
        0.9999749660491943,
        0.9993389844894409,
        0.9997782111167908
      ],
      "min": [
        -0.9999529123306274,
        -0.9986832141876221,
        -0.9993276596069336
      ],
      "type": "VEC3"
    },
    {
      "bufferView": 1,
      "byteOffset": 4808,
      "componentType": 5126,
      "count": 2577,
      "max": [
        0.875,
        1.0
      ],
      "min": [
        0.044652000069618225,
        0.0
      ],
      "type": "VEC2"
    },
    {
      "bufferView": 0,
      "byteOffset": 11280,
      "componentType": 5125,
      "count": 11904,
      "type": "SCALAR"
    },
    {
      "bufferView": 2,
      "byteOffset": 76272,
      "componentType": 5126,
      "count": 4640,
      "max": [
        0.8464080095291138,
        1.0062270164489746,
        2.0465340614318848
      ],
      "min": [
        -0.9738839864730835,
        -0.35226699709892273,
        0.09710399806499481
      ],
      "type": "VEC3"
    },
    {
      "bufferView": 2,
      "byteOffset": 131952,
      "componentType": 5126,
      "count": 4640,
      "max": [
        0.9991751909255981,
        0.9996492266654968,
        0.9998486638069153
      ],
      "min": [
        -0.9992303848266602,
        -0.9996383786201477,
        -0.9993780851364136
      ],
      "type": "VEC3"
    },
    {
      "bufferView": 1,
      "byteOffset": 25424,
      "componentType": 5126,
      "count": 4640,
      "max": [
        1.0000089406967163,
        1.0000970363616943
      ],
      "min": [
        -1.2999999853491317e-05,
        0.0
      ],
      "type": "VEC2"
    },
    {
      "bufferView": 0,
      "byteOffset": 58896,
      "componentType": 5125,
      "count": 23037,
      "type": "SCALAR"
    },
    {
      "bufferView": 2,
      "byteOffset": 187632,
      "componentType": 5126,
      "count": 232,
      "max": [
        -0.015935000032186508,
        -0.3624899983406067,
        2.80378794670105
      ],
      "min": [
        -0.12925800681114197,
        -0.9719799757003784,
        -0.13901999592781067
      ],
      "type": "VEC3"
    },
    {
      "bufferView": 2,
      "byteOffset": 190416,
      "componentType": 5126,
      "count": 232,
      "max": [
        0.9976322650909424,
        0.9801813960075378,
        0.9832701683044434
      ],
      "min": [
        -0.9976322650909424,
        -0.9801813960075378,
        -0.9832873344421387
      ],
      "type": "VEC3"
    },
    {
      "bufferView": 1,
      "byteOffset": 62544,
      "componentType": 5126,
      "count": 232,
      "max": [
        1.0,
        1.0
      ],
      "min": [
        0.0,
        0.0
      ],
      "type": "VEC2"
    },
    {
      "bufferView": 0,
      "byteOffset": 151044,
      "componentType": 5125,
      "count": 444,
      "type": "SCALAR"
    },
    {
      "bufferView": 2,
      "byteOffset": 193200,
      "componentType": 5126,
      "count": 321,
      "max": [
        1.3094760179519653,
        1.303760051727295,
        -1.5056350231170654
      ],
      "min": [
        -1.3009769916534424,
        -1.3066940307617188,
        -2.1525440216064453
      ],
      "type": "VEC3"
    },
    {
      "bufferView": 2,
      "byteOffset": 197052,
      "componentType": 5126,
      "count": 321,
      "max": [
        0.9451975226402283,
        0.9451975226402283,
        0.9996629357337952
      ],
      "min": [
        -0.9451975226402283,
        -0.9451975226402283,
        -0.9996629357337952
      ],
      "type": "VEC3"
    },
    {
      "bufferView": 1,
      "byteOffset": 64400,
      "componentType": 5126,
      "count": 321,
      "max": [
        1.0311880111694336,
        1.1037240028381348
      ],
      "min": [
        -1.3507519960403442,
        0.010060999542474747
      ],
      "type": "VEC2"
    },
    {
      "bufferView": 0,
      "byteOffset": 152820,
      "componentType": 5125,
      "count": 948,
      "type": "SCALAR"
    },
    {
      "bufferView": 2,
      "byteOffset": 200904,
      "componentType": 5126,
      "count": 322,
      "max": [
        1.3094760179519653,
        1.303760051727295,
        -1.5056350231170654
      ],
      "min": [
        -1.3009769916534424,
        -1.3066940307617188,
        -2.123434066772461
      ],
      "type": "VEC3"
    },
    {
      "bufferView": 2,
      "byteOffset": 204768,
      "componentType": 5126,
      "count": 322,
      "max": [
        0.9451975226402283,
        0.9451975226402283,
        0.9996629357337952
      ],
      "min": [
        -0.9451975226402283,
        -0.9451975226402283,
        -0.32652416825294495
      ],
      "type": "VEC3"
    },
    {
      "bufferView": 1,
      "byteOffset": 66968,
      "componentType": 5126,
      "count": 322,
      "max": [
        1.0848710536956787,
        1.1574070453643799
      ],
      "min": [
        -1.3507519960403442,
        -0.03285500034689903
      ],
      "type": "VEC2"
    },
    {
      "bufferView": 0,
      "byteOffset": 156612,
      "componentType": 5125,
      "count": 960,
      "type": "SCALAR"
    }
  ],
  "asset": {
    "extras": {
      "author": "Raso.Aral (https://sketchfab.com/Raso.Aral)",
      "license": "CC-BY-4.0 (http://creativecommons.org/licenses/by/4.0/)",
      "source": "https://sketchfab.com/3d-models/hollow-knight-205f78128d524f2183978361b6492cdc",
      "title": "HOLLOW KNIGHT"
    },
    "generator": "Sketchfab-14.25.0",
    "version": "2.0"
  },
  "bufferViews": [
    {
      "buffer": 0,
      "byteLength": 160452,
      "name": "floatBufferViews",
      "target": 34963
    },
    {
      "buffer": 0,
      "byteLength": 69544,
      "byteOffset": 160452,
      "byteStride": 8,
      "name": "floatBufferViews",
      "target": 34962
    },
    {
      "buffer": 0,
      "byteLength": 208632,
      "byteOffset": 229996,
      "byteStride": 12,
      "name": "floatBufferViews",
      "target": 34962
    }
  ],
  "buffers": [
    {
      "byteLength": 438628,
      "uri": "scene.bin"
    }
  ],
  "images": [
    {
      "uri": "textures/Material.006_baseColor.png"
    }
  ],
  "materials": [
    {
      "doubleSided": true,
      "name": "Material",
      "pbrMetallicRoughness": {
        "baseColorFactor": [
          0.01790197205925353,
          0.04312463543098577,
          0.08278013630699911,
          1.0
        ],
        "metallicFactor": 0.8993300487792951,
        "roughnessFactor": 0.5386811252246415
      }
    },
    {
      "doubleSided": true,
      "name": "Material.001",
      "pbrMetallicRoughness": {
        "baseColorFactor": [
          0.0,
          0.0,
          0.0,
          1.0
        ],
        "roughnessFactor": 0.0
      }
    },
    {
      "doubleSided": true,
      "name": "Material.002",
      "pbrMetallicRoughness": {
        "metallicFactor": 0.3797510911158111,
        "roughnessFactor": 0.1474687335721359
      }
    },
    {
      "doubleSided": true,
      "name": "Material.003",
      "pbrMetallicRoughness": {
        "roughnessFactor": 0.0741164101372911
      }
    },
    {
      "doubleSided": true,
      "name": "Material.006",
      "pbrMetallicRoughness": {
        "baseColorTexture": {
          "index": 0
        },
        "metallicFactor": 0.0,
        "roughnessFactor": 0.6
      }
    },
    {
      "doubleSided": true,
      "name": "Material.007",
      "pbrMetallicRoughness": {
        "baseColorFactor": [
          0.0,
          0.0,
          0.0,
          1.0
        ],
        "metallicFactor": 0.8626538870618727,
        "roughnessFactor": 0.2208210570069807
      }
    }
  ],
  "meshes": [
    {
      "name": "Object_0",
      "primitives": [
        {
          "attributes": {
            "NORMAL": 1,
            "POSITION": 0,
            "TEXCOORD_0": 2
          },
          "indices": 3,
          "material": 0,
          "mode": 4
        }
      ]
    },
    {
      "name": "Object_1",
      "primitives": [
        {
          "attributes": {
            "NORMAL": 5,
            "POSITION": 4,
            "TEXCOORD_0": 6
          },
          "indices": 7,
          "material": 1,
          "mode": 4
        }
      ]
    },
    {
      "name": "Object_2",
      "primitives": [
        {
          "attributes": {
            "NORMAL": 9,
            "POSITION": 8,
            "TEXCOORD_0": 10
          },
          "indices": 11,
          "material": 2,
          "mode": 4
        }
      ]
    },
    {
      "name": "Object_3",
      "primitives": [
        {
          "attributes": {
            "NORMAL": 13,
            "POSITION": 12,
            "TEXCOORD_0": 14
          },
          "indices": 15,
          "material": 3,
          "mode": 4
        }
      ]
    },
    {
      "name": "Object_4",
      "primitives": [
        {
          "attributes": {
            "NORMAL": 17,
            "POSITION": 16,
            "TEXCOORD_0": 18
          },
          "indices": 19,
          "material": 4,
          "mode": 4
        }
      ]
    },
    {
      "name": "Object_5",
      "primitives": [
        {
          "attributes": {
            "NORMAL": 21,
            "POSITION": 20,
            "TEXCOORD_0": 22
          },
          "indices": 23,
          "material": 5,
          "mode": 4
        }
      ]
    }
  ],
  "nodes": [
    {
      "children": [
        1
      ],
      "matrix": [
        0.26091212034225464,
        0.0,
        0.0,
        0.0,
        0.0,
        5.793412868154816e-17,
        -0.26091212034225464,
        0.0,
        0.0,
        0.26091212034225464,
        5.793412868154816e-17,
        0.0,
        0.0,
        0.0,
        0.0,
        1.0
      ],
      "name": "Sketchfab_model"
    },
    {
      "children": [
        2,
        3,
        4,
        5,
        6,
        7
      ],
      "name": "untitled.obj.cleaner.materialmerger.gles"
    },
    {
      "mesh": 0,
      "name": "Object_2"
    },
    {
      "mesh": 1,
      "name": "Object_3"
    },
    {
      "mesh": 2,
      "name": "Object_4"
    },
    {
      "mesh": 3,
      "name": "Object_5"
    },
    {
      "mesh": 4,
      "name": "Object_6"
    },
    {
      "mesh": 5,
      "name": "Object_7"
    }
  ],
  "samplers": [
    {
      "magFilter": 9729,
      "minFilter": 9987,
      "wrapS": 10497,
      "wrapT": 10497
    }
  ],
  "scene": 0,
  "scenes": [
    {
      "name": "Sketchfab_Scene",
      "nodes": [
        0
      ]
    }
  ],
  "textures": [
    {
      "sampler": 0,
      "source": 0
    }
  ]
}
