{
	"asset":{
		"generator":"Khronos glTF Blender I/O v4.2.57",
		"version":"2.0"
	},
	"scene":0,
	"scenes":[
		{
			"name":"Scene",
			"nodes":[
				32,
				33,
				34,
				35
			]
		}
	],
	"nodes":[
		{
			"mesh":0,
			"name":"Object_10"
		},
		{
			"mesh":1,
			"name":"Object_11"
		},
		{
			"children":[
				0,
				1
			],
			"name":"cam_2",
			"rotation":[
				1,
				0,
				0,
				1.9470718370939721e-07
			],
			"translation":[
				0,
				0.05670514702796936,
				-0.004404009319841862
			]
		},
		{
			"mesh":2,
			"name":"Object_7"
		},
		{
			"mesh":3,
			"name":"Object_8"
		},
		{
			"children":[
				2,
				3,
				4
			],
			"name":"dex_3",
			"rotation":[
				0.2588191032409668,
				0,
				0,
				0.9659258127212524
			]
		},
		{
			"mesh":4,
			"name":"Object_14"
		},
		{
			"children":[
				6
			],
			"name":"gastly_4",
			"translation":[
				0,
				-0.007955076172947884,
				0
			]
		},
		{
			"mesh":5,
			"name":"Object_18"
		},
		{
			"children":[
				8
			],
			"name":"Roundcube.002_6",
			"translation":[
				0,
				-0.007955076172947884,
				0
			]
		},
		{
			"mesh":6,
			"name":"Object_16"
		},
		{
			"children":[
				10
			],
			"name":"Roundcube_5",
			"translation":[
				0,
				-0.007955076172947884,
				0
			]
		},
		{
			"children":[
				7,
				9,
				11
			],
			"name":"Empty_7",
			"rotation":[
				0,
				0,
				0.0008236427675001323,
				1
			],
			"translation":[
				-0.053369201719760895,
				-0.05176932364702225,
				-0.0025940239429473877
			]
		},
		{
			"mesh":7,
			"name":"Object_4"
		},
		{
			"mesh":8,
			"name":"Object_5"
		},
		{
			"mesh":9,
			"name":"Object_23"
		},
		{
			"mesh":10,
			"name":"Object_24"
		},
		{
			"children":[
				15,
				16
			],
			"name":"poke 2_10",
			"translation":[
				-0.031670596450567245,
				-0.03991895541548729,
				-0.003032495267689228
			]
		},
		{
			"mesh":11,
			"name":"Object_26"
		},
		{
			"mesh":12,
			"name":"Object_27"
		},
		{
			"children":[
				18,
				19
			],
			"name":"poke.001_11",
			"translation":[
				-0.015155453234910965,
				-0.008225606754422188,
				-0.007371582090854645
			]
		},
		{
			"mesh":13,
			"name":"Object_20"
		},
		{
			"mesh":14,
			"name":"Object_21"
		},
		{
			"children":[
				21,
				22
			],
			"name":"poke_9"
		},
		{
			"mesh":15,
			"name":"Object_29"
		},
		{
			"mesh":16,
			"name":"Object_30"
		},
		{
			"children":[
				24,
				25
			],
			"name":"Roundcube.001_12",
			"translation":[
				-0.05414925515651703,
				-0.03506926819682121,
				0
			]
		},
		{
			"mesh":17,
			"name":"Object_32"
		},
		{
			"children":[
				27
			],
			"name":"Roundcube.003_13",
			"rotation":[
				0,
				0,
				-0.37959784269332886,
				0.9251516461372375
			],
			"translation":[
				-0.03106684237718582,
				-0.013804331421852112,
				-0.010230209678411484
			]
		},
		{
			"children":[
				5,
				12,
				13,
				14,
				17,
				20,
				23,
				26,
				28
			],
			"name":"dex 2_14",
			"rotation":[
				-0.25677695870399475,
				0.12109856307506561,
				0.032448261976242065,
				0.9583047032356262
			],
			"translation":[
				0,
				0.08641643077135086,
				0
			]
		},
		{
			"children":[
				29
			],
			"name":"GLTF_SceneRootNode",
			"rotation":[
				0.70710688829422,
				0,
				0,
				0.7071066498756409
			]
		},
		{
			"children":[
				30
			],
			"name":"root"
		},
		{
			"children":[
				31
			],
			"name":"Sketchfab_model",
			"rotation":[
				-0.70710688829422,
				0,
				0,
				0.7071066498756409
			]
		},
		{
			"name":"gastly.001_19",
			"translation":[
				0,
				-0.00795508362352848,
				0
			]
		},
		{
			"name":"Roundcube.004_20",
			"translation":[
				0,
				-0.00795508362352848,
				0
			]
		},
		{
			"name":"Roundcube.005_21",
			"translation":[
				0,
				-0.00795508362352848,
				0
			]
		}
	],
	"materials":[
		{
			"doubleSided":true,
			"name":"pokedex",
			"pbrMetallicRoughness":{
				"baseColorTexture":{
					"index":0
				},
				"metallicFactor":0,
				"roughnessFactor":0.7177164554595947
			}
		},
		{
			"name":"outline",
			"pbrMetallicRoughness":{
				"baseColorFactor":[
					0,
					0,
					0,
					1
				],
				"metallicFactor":0,
				"roughnessFactor":0
			}
		},
		{
			"emissiveFactor":[
				0.4917562007904053,
				0.15131132304668427,
				0.47555798292160034
			],
			"name":"gastle-aura",
			"pbrMetallicRoughness":{
				"baseColorFactor":[
					0.7494345307350159,
					0.0003015599795617163,
					0.45098602771759033,
					1
				],
				"metallicFactor":0,
				"roughnessFactor":0
			}
		}
	],
	"meshes":[
		{
			"name":"Object_4",
			"primitives":[
				{
					"attributes":{
						"POSITION":0,
						"NORMAL":1,
						"TEXCOORD_0":2
					},
					"indices":3,
					"material":0
				}
			]
		},
		{
			"name":"Object_5",
			"primitives":[
				{
					"attributes":{
						"POSITION":4,
						"NORMAL":5,
						"TEXCOORD_0":6
					},
					"indices":7,
					"material":1
				}
			]
		},
		{
			"name":"Object_2",
			"primitives":[
				{
					"attributes":{
						"POSITION":8,
						"NORMAL":9,
						"TEXCOORD_0":10
					},
					"indices":11,
					"material":0
				}
			]
		},
		{
			"name":"Object_3",
			"primitives":[
				{
					"attributes":{
						"POSITION":12,
						"NORMAL":13,
						"TEXCOORD_0":14
					},
					"indices":15,
					"material":1
				}
			]
		},
		{
			"name":"Object_6",
			"primitives":[
				{
					"attributes":{
						"POSITION":16,
						"NORMAL":17,
						"TEXCOORD_0":18
					},
					"indices":19,
					"material":2
				}
			]
		},
		{
			"name":"Object_8",
			"primitives":[
				{
					"attributes":{
						"POSITION":20,
						"NORMAL":21,
						"TEXCOORD_0":22
					},
					"indices":23,
					"material":0
				}
			]
		},
		{
			"name":"Object_7",
			"primitives":[
				{
					"attributes":{
						"POSITION":24,
						"NORMAL":25,
						"TEXCOORD_0":26
					},
					"indices":27,
					"material":0
				}
			]
		},
		{
			"name":"Object_0",
			"primitives":[
				{
					"attributes":{
						"POSITION":28,
						"NORMAL":29,
						"TEXCOORD_0":30
					},
					"indices":31,
					"material":0
				}
			]
		},
		{
			"name":"Object_1",
			"primitives":[
				{
					"attributes":{
						"POSITION":32,
						"NORMAL":33,
						"TEXCOORD_0":34
					},
					"indices":35,
					"material":1
				}
			]
		},
		{
			"name":"Object_11",
			"primitives":[
				{
					"attributes":{
						"POSITION":36,
						"NORMAL":37,
						"TEXCOORD_0":38
					},
					"indices":39,
					"material":0
				}
			]
		},
		{
			"name":"Object_12",
			"primitives":[
				{
					"attributes":{
						"POSITION":40,
						"NORMAL":41,
						"TEXCOORD_0":42
					},
					"indices":43,
					"material":1
				}
			]
		},
		{
			"name":"Object_13",
			"primitives":[
				{
					"attributes":{
						"POSITION":44,
						"NORMAL":45,
						"TEXCOORD_0":46
					},
					"indices":47,
					"material":0
				}
			]
		},
		{
			"name":"Object_14",
			"primitives":[
				{
					"attributes":{
						"POSITION":48,
						"NORMAL":49,
						"TEXCOORD_0":50
					},
					"indices":51,
					"material":1
				}
			]
		},
		{
			"name":"Object_9",
			"primitives":[
				{
					"attributes":{
						"POSITION":52,
						"NORMAL":53,
						"TEXCOORD_0":54
					},
					"indices":55,
					"material":0
				}
			]
		},
		{
			"name":"Object_10",
			"primitives":[
				{
					"attributes":{
						"POSITION":56,
						"NORMAL":57,
						"TEXCOORD_0":58
					},
					"indices":59,
					"material":1
				}
			]
		},
		{
			"name":"Object_15",
			"primitives":[
				{
					"attributes":{
						"POSITION":60,
						"NORMAL":61,
						"TEXCOORD_0":62
					},
					"indices":63,
					"material":0
				}
			]
		},
		{
			"name":"Object_16",
			"primitives":[
				{
					"attributes":{
						"POSITION":64,
						"NORMAL":65,
						"TEXCOORD_0":66
					},
					"indices":67,
					"material":1
				}
			]
		},
		{
			"name":"Object_17",
			"primitives":[
				{
					"attributes":{
						"POSITION":68,
						"NORMAL":69,
						"TEXCOORD_0":70
					},
					"indices":71,
					"material":0
				}
			]
		}
	],
	"textures":[
		{
			"sampler":0,
			"source":0
		}
	],
	"images":[
		{
			"mimeType":"image/png",
			"name":"pokedex_baseColor",
			"uri":"pokedex_baseColor.png"
		}
	],
	"accessors":[
		{
			"bufferView":0,
			"componentType":5126,
			"count":42,
			"max":[
				0.013942384161055088,
				0.013259989209473133,
				0.004043469205498695
			],
			"min":[
				-0.013942384161055088,
				-0.013259989209473133,
				0.00042599320295266807
			],
			"type":"VEC3"
		},
		{
			"bufferView":1,
			"componentType":5126,
			"count":42,
			"type":"VEC3"
		},
		{
			"bufferView":2,
			"componentType":5126,
			"count":42,
			"type":"VEC2"
		},
		{
			"bufferView":3,
			"componentType":5123,
			"count":108,
			"type":"SCALAR"
		},
		{
			"bufferView":4,
			"componentType":5126,
			"count":42,
			"max":[
				0.015016741119325161,
				0.014281762763857841,
				0.004947184585034847
			],
			"min":[
				-0.015016741119325161,
				-0.014281762763857841,
				-0.00047772235120646656
			],
			"type":"VEC3"
		},
		{
			"bufferView":5,
			"componentType":5126,
			"count":42,
			"type":"VEC3"
		},
		{
			"bufferView":6,
			"componentType":5126,
			"count":42,
			"type":"VEC2"
		},
		{
			"bufferView":7,
			"componentType":5123,
			"count":108,
			"type":"SCALAR"
		},
		{
			"bufferView":8,
			"componentType":5126,
			"count":24,
			"max":[
				0.031670600175857544,
				0.05670511722564697,
				-0.0014364164089784026
			],
			"min":[
				-0.031670600175857544,
				1.60360946743765e-10,
				-0.007371582556515932
			],
			"type":"VEC3"
		},
		{
			"bufferView":9,
			"componentType":5126,
			"count":24,
			"type":"VEC3"
		},
		{
			"bufferView":10,
			"componentType":5126,
			"count":24,
			"type":"VEC2"
		},
		{
			"bufferView":11,
			"componentType":5123,
			"count":36,
			"type":"SCALAR"
		},
		{
			"bufferView":12,
			"componentType":5126,
			"count":24,
			"max":[
				0.032670602202415466,
				0.057705119252204895,
				-0.00043641601223498583
			],
			"min":[
				-0.032670602202415466,
				-0.0010000000474974513,
				-0.008371583186089993
			],
			"type":"VEC3"
		},
		{
			"bufferView":13,
			"componentType":5126,
			"count":24,
			"type":"VEC3"
		},
		{
			"bufferView":14,
			"componentType":5126,
			"count":24,
			"type":"VEC2"
		},
		{
			"bufferView":15,
			"componentType":5123,
			"count":36,
			"type":"SCALAR"
		},
		{
			"bufferView":16,
			"componentType":5126,
			"count":34,
			"max":[
				0.013404058292508125,
				0.01620333269238472,
				0.014363547787070274
			],
			"min":[
				-0.01326995063573122,
				-0.012715152464807034,
				-0.013404058292508125
			],
			"type":"VEC3"
		},
		{
			"bufferView":17,
			"componentType":5126,
			"count":34,
			"type":"VEC3"
		},
		{
			"bufferView":18,
			"componentType":5126,
			"count":34,
			"type":"VEC2"
		},
		{
			"bufferView":19,
			"componentType":5123,
			"count":144,
			"type":"SCALAR"
		},
		{
			"bufferView":20,
			"componentType":5126,
			"count":16,
			"max":[
				0.012262278236448765,
				0.0074305287562310696,
				0.011569920927286148
			],
			"min":[
				-0.012262278236448765,
				-0.008208728395402431,
				7.605533028254285e-05
			],
			"type":"VEC3"
		},
		{
			"bufferView":21,
			"componentType":5126,
			"count":16,
			"type":"VEC3"
		},
		{
			"bufferView":22,
			"componentType":5126,
			"count":16,
			"type":"VEC2"
		},
		{
			"bufferView":23,
			"componentType":5123,
			"count":36,
			"type":"SCALAR"
		},
		{
			"bufferView":24,
			"componentType":5126,
			"count":34,
			"max":[
				0.011569920927286148,
				0.011569920927286148,
				0.011569920927286148
			],
			"min":[
				-0.011569920927286148,
				-0.011569920927286148,
				-0.011569920927286148
			],
			"type":"VEC3"
		},
		{
			"bufferView":25,
			"componentType":5126,
			"count":34,
			"type":"VEC3"
		},
		{
			"bufferView":26,
			"componentType":5126,
			"count":34,
			"type":"VEC2"
		},
		{
			"bufferView":27,
			"componentType":5123,
			"count":144,
			"type":"SCALAR"
		},
		{
			"bufferView":28,
			"componentType":5126,
			"count":42,
			"max":[
				0.03230401128530502,
				0.005284151528030634,
				0.00555608794093132
			],
			"min":[
				-0.03230401128530502,
				-0.005284151528030634,
				-0.00555608794093132
			],
			"type":"VEC3"
		},
		{
			"bufferView":29,
			"componentType":5126,
			"count":42,
			"type":"VEC3"
		},
		{
			"bufferView":30,
			"componentType":5126,
			"count":42,
			"type":"VEC2"
		},
		{
			"bufferView":31,
			"componentType":5123,
			"count":108,
			"type":"SCALAR"
		},
		{
			"bufferView":32,
			"componentType":5126,
			"count":42,
			"max":[
				0.0332077257335186,
				0.006305924151092768,
				0.006630443036556244
			],
			"min":[
				-0.0332077257335186,
				-0.006305924151092768,
				-0.006630443036556244
			],
			"type":"VEC3"
		},
		{
			"bufferView":33,
			"componentType":5126,
			"count":42,
			"type":"VEC3"
		},
		{
			"bufferView":34,
			"componentType":5126,
			"count":42,
			"type":"VEC2"
		},
		{
			"bufferView":35,
			"componentType":5123,
			"count":108,
			"type":"SCALAR"
		},
		{
			"bufferView":36,
			"componentType":5126,
			"count":150,
			"max":[
				0.0655789002776146,
				0.030543215572834015,
				0.0023525734432041645
			],
			"min":[
				-0.002237700391560793,
				-0.030543217435479164,
				-0.002352572977542877
			],
			"type":"VEC3"
		},
		{
			"bufferView":37,
			"componentType":5126,
			"count":150,
			"type":"VEC3"
		},
		{
			"bufferView":38,
			"componentType":5126,
			"count":150,
			"type":"VEC2"
		},
		{
			"bufferView":39,
			"componentType":5123,
			"count":576,
			"type":"SCALAR"
		},
		{
			"bufferView":40,
			"componentType":5126,
			"count":150,
			"max":[
				0.06657729297876358,
				0.03151172399520874,
				0.003402627306059003
			],
			"min":[
				-0.003236089600250125,
				-0.03151172399520874,
				-0.0034026270732283592
			],
			"type":"VEC3"
		},
		{
			"bufferView":41,
			"componentType":5126,
			"count":150,
			"type":"VEC3"
		},
		{
			"bufferView":42,
			"componentType":5126,
			"count":150,
			"type":"VEC2"
		},
		{
			"bufferView":43,
			"componentType":5123,
			"count":576,
			"type":"SCALAR"
		},
		{
			"bufferView":44,
			"componentType":5126,
			"count":72,
			"max":[
				0.014309565536677837,
				0.023254087194800377,
				0.0021349708549678326
			],
			"min":[
				-0.014309565536677837,
				-0.00390608049929142,
				-0.004305106122046709
			],
			"type":"VEC3"
		},
		{
			"bufferView":45,
			"componentType":5126,
			"count":72,
			"type":"VEC3"
		},
		{
			"bufferView":46,
			"componentType":5126,
			"count":72,
			"type":"VEC2"
		},
		{
			"bufferView":47,
			"componentType":5123,
			"count":120,
			"type":"SCALAR"
		},
		{
			"bufferView":48,
			"componentType":5126,
			"count":72,
			"max":[
				0.01530956570059061,
				0.024288496002554893,
				0.0031349710188806057
			],
			"min":[
				-0.01530956570059061,
				-0.004906080663204193,
				-0.005354695022106171
			],
			"type":"VEC3"
		},
		{
			"bufferView":49,
			"componentType":5126,
			"count":72,
			"type":"VEC3"
		},
		{
			"bufferView":50,
			"componentType":5126,
			"count":72,
			"type":"VEC2"
		},
		{
			"bufferView":51,
			"componentType":5123,
			"count":120,
			"type":"SCALAR"
		},
		{
			"bufferView":52,
			"componentType":5126,
			"count":98,
			"max":[
				0.031670600175857544,
				0,
				0.007371582090854645
			],
			"min":[
				-0.031670600175857544,
				-0.08365000039339066,
				-0.007371582090854645
			],
			"type":"VEC3"
		},
		{
			"bufferView":53,
			"componentType":5126,
			"count":98,
			"type":"VEC3"
		},
		{
			"bufferView":54,
			"componentType":5126,
			"count":98,
			"type":"VEC2"
		},
		{
			"bufferView":55,
			"componentType":5123,
			"count":216,
			"type":"SCALAR"
		},
		{
			"bufferView":56,
			"componentType":5126,
			"count":100,
			"max":[
				0.033470600843429565,
				0.0010338377906009555,
				0.008371582254767418
			],
			"min":[
				-0.033470600843429565,
				-0.08466103672981262,
				-0.00839301012456417
			],
			"type":"VEC3"
		},
		{
			"bufferView":57,
			"componentType":5126,
			"count":100,
			"type":"VEC3"
		},
		{
			"bufferView":58,
			"componentType":5126,
			"count":100,
			"type":"VEC2"
		},
		{
			"bufferView":59,
			"componentType":5123,
			"count":216,
			"type":"SCALAR"
		},
		{
			"bufferView":60,
			"componentType":5126,
			"count":120,
			"max":[
				0.020392464473843575,
				0.0189522672444582,
				0.0020305609796196222
			],
			"min":[
				-0.0030273201409727335,
				-0.018921488896012306,
				-0.014279241673648357
			],
			"type":"VEC3"
		},
		{
			"bufferView":61,
			"componentType":5126,
			"count":120,
			"type":"VEC3"
		},
		{
			"bufferView":62,
			"componentType":5126,
			"count":120,
			"type":"VEC2"
		},
		{
			"bufferView":63,
			"componentType":5123,
			"count":120,
			"type":"SCALAR"
		},
		{
			"bufferView":64,
			"componentType":5126,
			"count":120,
			"max":[
				0.02113712765276432,
				0.019802091643214226,
				0.0029174936935305595
			],
			"min":[
				-0.003909210674464703,
				-0.01991243287920952,
				-0.015156167559325695
			],
			"type":"VEC3"
		},
		{
			"bufferView":65,
			"componentType":5126,
			"count":120,
			"type":"VEC3"
		},
		{
			"bufferView":66,
			"componentType":5126,
			"count":120,
			"type":"VEC2"
		},
		{
			"bufferView":67,
			"componentType":5123,
			"count":120,
			"type":"SCALAR"
		},
		{
			"bufferView":68,
			"componentType":5126,
			"count":38,
			"max":[
				0.004597430117428303,
				0.008052848279476166,
				0.004597430117428303
			],
			"min":[
				-0.004597430117428303,
				-0.008705778047442436,
				-0.004597430117428303
			],
			"type":"VEC3"
		},
		{
			"bufferView":69,
			"componentType":5126,
			"count":38,
			"type":"VEC3"
		},
		{
			"bufferView":70,
			"componentType":5126,
			"count":38,
			"type":"VEC2"
		},
		{
			"bufferView":71,
			"componentType":5123,
			"count":54,
			"type":"SCALAR"
		}
	],
	"bufferViews":[
		{
			"buffer":0,
			"byteLength":504,
			"byteOffset":0,
			"target":34962
		},
		{
			"buffer":0,
			"byteLength":504,
			"byteOffset":504,
			"target":34962
		},
		{
			"buffer":0,
			"byteLength":336,
			"byteOffset":1008,
			"target":34962
		},
		{
			"buffer":0,
			"byteLength":216,
			"byteOffset":1344,
			"target":34963
		},
		{
			"buffer":0,
			"byteLength":504,
			"byteOffset":1560,
			"target":34962
		},
		{
			"buffer":0,
			"byteLength":504,
			"byteOffset":2064,
			"target":34962
		},
		{
			"buffer":0,
			"byteLength":336,
			"byteOffset":2568,
			"target":34962
		},
		{
			"buffer":0,
			"byteLength":216,
			"byteOffset":2904,
			"target":34963
		},
		{
			"buffer":0,
			"byteLength":288,
			"byteOffset":3120,
			"target":34962
		},
		{
			"buffer":0,
			"byteLength":288,
			"byteOffset":3408,
			"target":34962
		},
		{
			"buffer":0,
			"byteLength":192,
			"byteOffset":3696,
			"target":34962
		},
		{
			"buffer":0,
			"byteLength":72,
			"byteOffset":3888,
			"target":34963
		},
		{
			"buffer":0,
			"byteLength":288,
			"byteOffset":3960,
			"target":34962
		},
		{
			"buffer":0,
			"byteLength":288,
			"byteOffset":4248,
			"target":34962
		},
		{
			"buffer":0,
			"byteLength":192,
			"byteOffset":4536,
			"target":34962
		},
		{
			"buffer":0,
			"byteLength":72,
			"byteOffset":4728,
			"target":34963
		},
		{
			"buffer":0,
			"byteLength":408,
			"byteOffset":4800,
			"target":34962
		},
		{
			"buffer":0,
			"byteLength":408,
			"byteOffset":5208,
			"target":34962
		},
		{
			"buffer":0,
			"byteLength":272,
			"byteOffset":5616,
			"target":34962
		},
		{
			"buffer":0,
			"byteLength":288,
			"byteOffset":5888,
			"target":34963
		},
		{
			"buffer":0,
			"byteLength":192,
			"byteOffset":6176,
			"target":34962
		},
		{
			"buffer":0,
			"byteLength":192,
			"byteOffset":6368,
			"target":34962
		},
		{
			"buffer":0,
			"byteLength":128,
			"byteOffset":6560,
			"target":34962
		},
		{
			"buffer":0,
			"byteLength":72,
			"byteOffset":6688,
			"target":34963
		},
		{
			"buffer":0,
			"byteLength":408,
			"byteOffset":6760,
			"target":34962
		},
		{
			"buffer":0,
			"byteLength":408,
			"byteOffset":7168,
			"target":34962
		},
		{
			"buffer":0,
			"byteLength":272,
			"byteOffset":7576,
			"target":34962
		},
		{
			"buffer":0,
			"byteLength":288,
			"byteOffset":7848,
			"target":34963
		},
		{
			"buffer":0,
			"byteLength":504,
			"byteOffset":8136,
			"target":34962
		},
		{
			"buffer":0,
			"byteLength":504,
			"byteOffset":8640,
			"target":34962
		},
		{
			"buffer":0,
			"byteLength":336,
			"byteOffset":9144,
			"target":34962
		},
		{
			"buffer":0,
			"byteLength":216,
			"byteOffset":9480,
			"target":34963
		},
		{
			"buffer":0,
			"byteLength":504,
			"byteOffset":9696,
			"target":34962
		},
		{
			"buffer":0,
			"byteLength":504,
			"byteOffset":10200,
			"target":34962
		},
		{
			"buffer":0,
			"byteLength":336,
			"byteOffset":10704,
			"target":34962
		},
		{
			"buffer":0,
			"byteLength":216,
			"byteOffset":11040,
			"target":34963
		},
		{
			"buffer":0,
			"byteLength":1800,
			"byteOffset":11256,
			"target":34962
		},
		{
			"buffer":0,
			"byteLength":1800,
			"byteOffset":13056,
			"target":34962
		},
		{
			"buffer":0,
			"byteLength":1200,
			"byteOffset":14856,
			"target":34962
		},
		{
			"buffer":0,
			"byteLength":1152,
			"byteOffset":16056,
			"target":34963
		},
		{
			"buffer":0,
			"byteLength":1800,
			"byteOffset":17208,
			"target":34962
		},
		{
			"buffer":0,
			"byteLength":1800,
			"byteOffset":19008,
			"target":34962
		},
		{
			"buffer":0,
			"byteLength":1200,
			"byteOffset":20808,
			"target":34962
		},
		{
			"buffer":0,
			"byteLength":1152,
			"byteOffset":22008,
			"target":34963
		},
		{
			"buffer":0,
			"byteLength":864,
			"byteOffset":23160,
			"target":34962
		},
		{
			"buffer":0,
			"byteLength":864,
			"byteOffset":24024,
			"target":34962
		},
		{
			"buffer":0,
			"byteLength":576,
			"byteOffset":24888,
			"target":34962
		},
		{
			"buffer":0,
			"byteLength":240,
			"byteOffset":25464,
			"target":34963
		},
		{
			"buffer":0,
			"byteLength":864,
			"byteOffset":25704,
			"target":34962
		},
		{
			"buffer":0,
			"byteLength":864,
			"byteOffset":26568,
			"target":34962
		},
		{
			"buffer":0,
			"byteLength":576,
			"byteOffset":27432,
			"target":34962
		},
		{
			"buffer":0,
			"byteLength":240,
			"byteOffset":28008,
			"target":34963
		},
		{
			"buffer":0,
			"byteLength":1176,
			"byteOffset":28248,
			"target":34962
		},
		{
			"buffer":0,
			"byteLength":1176,
			"byteOffset":29424,
			"target":34962
		},
		{
			"buffer":0,
			"byteLength":784,
			"byteOffset":30600,
			"target":34962
		},
		{
			"buffer":0,
			"byteLength":432,
			"byteOffset":31384,
			"target":34963
		},
		{
			"buffer":0,
			"byteLength":1200,
			"byteOffset":31816,
			"target":34962
		},
		{
			"buffer":0,
			"byteLength":1200,
			"byteOffset":33016,
			"target":34962
		},
		{
			"buffer":0,
			"byteLength":800,
			"byteOffset":34216,
			"target":34962
		},
		{
			"buffer":0,
			"byteLength":432,
			"byteOffset":35016,
			"target":34963
		},
		{
			"buffer":0,
			"byteLength":1440,
			"byteOffset":35448,
			"target":34962
		},
		{
			"buffer":0,
			"byteLength":1440,
			"byteOffset":36888,
			"target":34962
		},
		{
			"buffer":0,
			"byteLength":960,
			"byteOffset":38328,
			"target":34962
		},
		{
			"buffer":0,
			"byteLength":240,
			"byteOffset":39288,
			"target":34963
		},
		{
			"buffer":0,
			"byteLength":1440,
			"byteOffset":39528,
			"target":34962
		},
		{
			"buffer":0,
			"byteLength":1440,
			"byteOffset":40968,
			"target":34962
		},
		{
			"buffer":0,
			"byteLength":960,
			"byteOffset":42408,
			"target":34962
		},
		{
			"buffer":0,
			"byteLength":240,
			"byteOffset":43368,
			"target":34963
		},
		{
			"buffer":0,
			"byteLength":456,
			"byteOffset":43608,
			"target":34962
		},
		{
			"buffer":0,
			"byteLength":456,
			"byteOffset":44064,
			"target":34962
		},
		{
			"buffer":0,
			"byteLength":304,
			"byteOffset":44520,
			"target":34962
		},
		{
			"buffer":0,
			"byteLength":108,
			"byteOffset":44824,
			"target":34963
		}
	],
	"samplers":[
		{
			"magFilter":9728,
			"minFilter":9984
		}
	],
	"buffers":[
		{
			"byteLength":44932,
			"uri":"scene.bin"
		}
	]
}
